PathFileType	4	(X/Y/Z)	RBDS002\RBDS002runT45.trc
DataRate	CameraRate	NumFrames	NumMarkers	Units	OrigDataRate	OrigDataStartFrame	OrigNumFrames
150.000000	150.000000	4	33	mm	150.000000	2250	4500
Frame#	Time	L.ASIS			L.Heel.Bottom			L.Heel.Lateral			L.Heel.Top			L.Iliac.Crest			L.MT1			L.MT5			L.PSIS			L.Shank.Bottom.Lateral			L.Shank.Bottom.Medial			L.Shank.Top.Lateral			L.Shank.Top.Medial			L.Thigh.Bottom.Lateral			L.Thigh.Bottom.Medial			L.Thigh.Top.Lateral			L.Thigh.Top.Medial			R.ASIS			R.ASY			R.Heel.Bottom			R.Heel.Lateral			R.Heel.Top			R.Iliac.Crest			R.MT1			R.MT5			R.PSIS			R.Shank.Bottom.Lateral			R.Shank.Bottom.Medial			R.Shank.Top.Lateral			R.Shank.Top.Medial			R.Thigh.Bottom.Lateral			R.Thigh.Bottom.Medial			R.Thigh.Top.Lateral			R.Thigh.Top.Medial			
		X1	Y1	Z1	X2	Y2	Z2	X3	Y3	Z3	X4	Y4	Z4	X5	Y5	Z5	X6	Y6	Z6	X7	Y7	Z7	X8	Y8	Z8	X9	Y9	Z9	X10	Y10	Z10	X11	Y11	Z11	X12	Y12	Z12	X13	Y13	Z13	X14	Y14	Z14	X15	Y15	Z15	X16	Y16	Z16	X17	Y17	Z17	X18	Y18	Z18	X19	Y19	Z19	X20	Y20	Z20	X21	Y21	Z21	X22	Y22	Z22	X23	Y23	Z23	X24	Y24	Z24	X25	Y25	Z25	X26	Y26	Z26	X27	Y27	Z27	X28	Y28	Z28	X29	Y29	Z29	X30	Y30	Z30	X31	Y31	Z31	X32	Y32	Z32	X33	Y33	Z33	

2251	15	2411.161527692854	1026.293984181533	864.8977696248861	1632.725163966648	455.8094308280828	931.5594810594213	1635.256867398019	429.4481622851393	881.2015425086663	1680.541241460704	449.9874892843748	918.0581771136119	2363.668631114787	1129.29553540863	821.6988277087912	1670.366488455838	227.3928199409723	942.806596028811	1631.817739809906	266.1436710517937	842.4122351818521	2240.399980686141	1096.149501923717	929.2289297210664	1754.033233286821	429.5693098816651	853.9420096975555	1740.532112349797	459.3114277289606	893.4451748776165	1818.593233325875	475.4397027502505	837.5378371849285	1808.35998583758	507.7563794054328	878.3166224384217	2119.916211623599	659.5951958135	822.6118682744807	2083.969090495217	680.0693876709596	883.2649049340507	2155.611422730824	763.7264604345456	813.3205029238835	2124.234179833812	782.0517730665522	871.4263603908738	2426.229128824456	1049.50252536066	1066.021413943228	2821.132542538191	214.6708605052659	991.4043626019887	2657.568503138789	106.2874327939617	971.7552752474991	2677.128654424671	119.32190670697	1013.569541145445	2654.393378140544	157.2678161235095	980.9316678395625	2328.569229712529	1132.298725791962	1126.5923110835	2877.890892425902	194.4358901341099	941.945320280674	2852.258390857922	157.2222580280072	1045.568545841442	2237.577568928805	1094.326392730398	1016.507180796789	2675.608853816219	262.2817148344579	1048.307462747958	2635.824552674104	257.4440802032913	1011.017703062556	2643.393760371595	333.678606004244	1070.368760157804	2606.174359771115	329.164562014965	1031.238899173929	2536.410942424342	680.2833490907054	1105.167115822454	2482.561353056147	647.5646033787618	1066.538552142054	2465.302609243536	760.5602478332412	1132.950940775674	2414.131914358087	728.0547441920106	1097.859426198371	
2252	15.00666666666667	2410.394097667761	1026.927151231595	862.9266195823373	1633.372533019369	476.8806006516792	931.3072661183812	1635.523615319372	450.6926185201315	880.801646502069	1681.144568249749	468.876786090313	918.5257637756955	2357.118786441261	1130.583638009242	820.7357941060283	1660.228281053648	246.8856371685418	941.9535639207388	1625.237795985086	288.2850813065766	840.9453630141763	2239.587493642364	1094.550522496636	930.4453225484759	1754.111408683627	443.5112282091543	854.0041389899819	1742.019297908034	474.559596225588	892.7880487270019	1821.251031968061	485.5246844334072	837.4757085830355	1812.61844037609	518.9870023084374	877.6631416157401	2126.909873802281	653.8093325497844	822.3376497181777	2091.374656478201	673.9282755573144	883.3469837094307	2160.659174706765	758.4883037503203	812.1015929295786	2129.53780191197	776.6313020018478	870.4361695942524	2426.588245551701	1048.689384525661	1064.16288600813	2826.23829352053	214.1989683517725	989.4275653311006	2664.055453705738	103.9649149866435	969.3284261823295	2683.65421128055	116.7507283651301	1011.192661255028	2660.210665167877	154.7835682157919	979.08203975178	2329.273440642052	1130.58849804768	1126.172197319595	2883.045124937653	195.4005952143915	939.3280454159412	2858.359670459319	156.3445791267675	1042.702722383204	2237.126915491302	1092.545449345945	1017.189651534044	2679.604484908421	259.6221981489493	1046.89403034007	2639.841711208961	254.112706007946	1009.654108922963	2645.864747710999	330.2355007540293	1069.402396308486	2608.665748114212	325.1050897760566	1030.252839980163	2534.062120635791	675.435803575832	1105.563359376189	2480.296889847353	644.0879104406227	1065.640496410898	2463.459438274639	755.964173038927	1133.924186520147	2412.328925845772	724.8152216262669	1097.483138023332	
2253	15.01333333333333	2409.755712811855	1027.059144293139	860.9811709458932	1636.583601060774	497.7278097670466	931.4117556106468	1638.169158141645	471.6472547521187	880.7747355790358	1684.197867971856	487.4847194662353	919.1681020047362	2350.679478765939	1131.179598911285	819.6602616872792	1652.554475961692	266.5050072886241	941.312180809913	1620.84933934475	310.3162516683537	839.89921027607	2238.76594698036	1092.268846457432	931.5522699152185	1756.168273666283	456.9928286600559	853.9878879366979	1745.552800654879	489.3614799112683	891.9623573460682	1825.623284535377	495.0188533475811	837.223275755324	1818.628381809357	529.6655779413729	876.7117716236741	2134.425268508433	647.318023113665	821.9228822374789	2099.25261722537	667.077318578959	883.278681175807	2166.127875492958	752.5436716368882	810.7777249272143	2135.290676884233	770.4660291923587	869.3729754888619	2426.899242544847	1047.584233221274	1062.416753935418	2827.774133235574	211.9103008130047	987.9258278046439	2666.031766374258	101.5637608518539	967.1513293985003	2685.695194568679	113.9867040412987	1009.084034241588	2662.044513064599	152.2051618444915	977.3759343962566	2329.901681243352	1128.492138323659	1125.953370710183	2884.395518331342	193.7465709077461	937.4176524553353	2860.077784047706	153.4822150444963	1040.491071302916	2236.650282381046	1090.07157903158	1017.813364749758	2680.552429369528	256.5903047891215	1045.625132403111	2640.822610518852	250.7285189024772	1008.399653621894	2645.987789381351	326.7367030848143	1068.387641655652	2608.79160760208	321.2756872179893	1029.211650293409	2532.124867587813	670.8455447513199	1105.555240487694	2478.433185194993	640.5781539012188	1064.582308971043	2461.856222128517	751.4620795774869	1134.503129465299	2410.775769612739	721.436803703318	1096.911134248692	
2254	15.02	2409.278517322149	1026.639785419012	859.1488224016967	1642.309106741401	518.031386418323	931.8570033222014	1643.156167505187	492.0313611533292	881.096485877391	1689.650511153565	505.5408982053905	919.9725111274515	2344.703302146431	1130.96897068469	818.4961831290133	1647.468178063342	285.9726516010252	940.8243881426263	1618.736297852794	331.9714192062421	839.2251721395395	2237.963461628417	1089.325767530297	932.4645271238197	1760.181785679271	469.8838040781062	853.9171932785614	1751.108332831118	503.5457971727196	891.0338693384156	1831.662660000036	503.8521186108395	836.8057160295854	1826.339277698549	539.6786975825809	875.5175945749018	2142.33376347376	640.2663290419108	821.3962553895276	2107.451104168159	659.6234052096831	883.0798298202936	2171.903177687249	746.0309939858575	809.4495393530784	2141.354561441662	763.6572173294313	868.3250250903228	2427.16127232721	1046.174992366878	1060.897910616934	2825.852249111024	207.6854597586982	986.8888632312819	2663.653928565463	98.75300017797667	965.23215360424	2683.390847633837	110.698491395507	1007.257166443827	2659.996090970049	149.2251416650712	975.8495273301053	2330.36776274362	1126.061460009527	1125.930811645203	2882.121118467177	189.4282235782804	936.1585022814543	2857.59273616387	148.5180130391675	1038.906419473421	2236.174035335049	1086.946875453506	1018.296602350724	2678.504625191308	252.9776693797272	1044.523724261148	2638.821119587952	247.0809222363992	1007.264502300527	2643.796915888196	322.9939613433193	1067.353297583549	2606.593853374591	317.4901749759155	1028.132163886861	2530.555510779251	666.5358018484957	1105.136042015635	2476.903584834333	637.0081433656057	1063.436665908182	2460.487824433705	747.1395851368526	1134.607469448146	2409.434324856018	717.9433535627934	1096.163262465394	
